{
   "accessors" : 
   [
      {
         "bufferView" : 0,
         "byteOffset" : 0,
         "componentType" : 5126,
         "count" : 53094,
         "max" : [ 1079.5263671875, 160.87370300292969, 219.2196044921875 ],
         "min" : [ -1654.287109375, -160.87370300292969, -124.32849884033203 ],
         "type" : "VEC3"
      },
      {
         "bufferView" : 1,
         "byteOffset" : 0,
         "componentType" : 5126,
         "count" : 53094,
         "normalized" : false,
         "type" : "VEC2"
      },
      {
         "bufferView" : 2,
         "byteOffset" : 0,
         "componentType" : 5125,
         "count" : 76662,
         "type" : "SCALAR"
      },
      {
         "bufferView" : 4,
         "byteOffset" : 0,
         "componentType" : 5126,
         "count" : 14320,
         "max" : [ 384.74359130859375, -133.65910339355469, 145.17340087890625 ],
         "min" : [ -966.58001708984375, -1560.1773681640625, -96.922401428222656 ],
         "type" : "VEC3"
      },
      {
         "bufferView" : 5,
         "byteOffset" : 0,
         "componentType" : 5126,
         "count" : 14320,
         "normalized" : false,
         "type" : "VEC2"
      },
      {
         "bufferView" : 6,
         "byteOffset" : 0,
         "componentType" : 5125,
         "count" : 21480,
         "type" : "SCALAR"
      },
      {
         "bufferView" : 8,
         "byteOffset" : 0,
         "componentType" : 5126,
         "count" : 110234,
         "max" : [ 211.07150268554688, -173.23939514160156, 97.334602355957031 ],
         "min" : [ -883.0313720703125, -1499.826416015625, -168.58389282226562 ],
         "type" : "VEC3"
      },
      {
         "bufferView" : 9,
         "byteOffset" : 0,
         "componentType" : 5126,
         "count" : 110234,
         "normalized" : false,
         "type" : "VEC2"
      },
      {
         "bufferView" : 10,
         "byteOffset" : 0,
         "componentType" : 5125,
         "count" : 164688,
         "type" : "SCALAR"
      },
      {
         "bufferView" : 12,
         "byteOffset" : 0,
         "componentType" : 5126,
         "count" : 20104,
         "max" : [ -998.8651123046875, 597.27447509765625, 639.600830078125 ],
         "min" : [ -1764.874267578125, -597.27447509765625, 98.314102172851562 ],
         "type" : "VEC3"
      },
      {
         "bufferView" : 13,
         "byteOffset" : 0,
         "componentType" : 5126,
         "count" : 20104,
         "normalized" : false,
         "type" : "VEC2"
      },
      {
         "bufferView" : 14,
         "byteOffset" : 0,
         "componentType" : 5125,
         "count" : 30156,
         "type" : "SCALAR"
      },
      {
         "bufferView" : 16,
         "byteOffset" : 0,
         "componentType" : 5126,
         "count" : 1560,
         "max" : [ -95.592498779296875, -610.79461669921875, 90.970901489257812 ],
         "min" : [ -722.45721435546875, -1486.3287353515625, 16.061199188232422 ],
         "type" : "VEC3"
      },
      {
         "bufferView" : 17,
         "byteOffset" : 0,
         "componentType" : 5126,
         "count" : 1560,
         "normalized" : false,
         "type" : "VEC2"
      },
      {
         "bufferView" : 18,
         "byteOffset" : 0,
         "componentType" : 5125,
         "count" : 2340,
         "type" : "SCALAR"
      },
      {
         "bufferView" : 19,
         "byteOffset" : 0,
         "componentType" : 5126,
         "count" : 110234,
         "max" : [ 211.07150268554688, 1499.826416015625, 97.334602355957031 ],
         "min" : [ -883.0313720703125, 173.23939514160156, -168.58389282226562 ],
         "type" : "VEC3"
      },
      {
         "bufferView" : 20,
         "byteOffset" : 0,
         "componentType" : 5126,
         "count" : 110234,
         "normalized" : false,
         "type" : "VEC2"
      },
      {
         "bufferView" : 21,
         "byteOffset" : 0,
         "componentType" : 5125,
         "count" : 164688,
         "type" : "SCALAR"
      },
      {
         "bufferView" : 23,
         "byteOffset" : 0,
         "componentType" : 5126,
         "count" : 1560,
         "max" : [ -95.592498779296875, 1486.3287353515625, 90.970901489257812 ],
         "min" : [ -722.45721435546875, 610.79461669921875, 16.061199188232422 ],
         "type" : "VEC3"
      },
      {
         "bufferView" : 24,
         "byteOffset" : 0,
         "componentType" : 5126,
         "count" : 1560,
         "normalized" : false,
         "type" : "VEC2"
      },
      {
         "bufferView" : 25,
         "byteOffset" : 0,
         "componentType" : 5125,
         "count" : 2340,
         "type" : "SCALAR"
      },
      {
         "bufferView" : 26,
         "byteOffset" : 0,
         "componentType" : 5126,
         "count" : 14320,
         "max" : [ 384.74359130859375, 1560.1773681640625, 145.17340087890625 ],
         "min" : [ -966.58001708984375, 133.65910339355469, -96.922401428222656 ],
         "type" : "VEC3"
      },
      {
         "bufferView" : 27,
         "byteOffset" : 0,
         "componentType" : 5126,
         "count" : 14320,
         "normalized" : false,
         "type" : "VEC2"
      },
      {
         "bufferView" : 28,
         "byteOffset" : 0,
         "componentType" : 5125,
         "count" : 21480,
         "type" : "SCALAR"
      },
      {
         "bufferView" : 30,
         "byteOffset" : 0,
         "componentType" : 5126,
         "count" : 1360,
         "max" : [ -1277.39208984375, 85.060997009277344, 134.68769836425781 ],
         "min" : [ -1433.711181640625, -85.060997009277344, 75.361503601074219 ],
         "type" : "VEC3"
      },
      {
         "bufferView" : 31,
         "byteOffset" : 0,
         "componentType" : 5126,
         "count" : 1360,
         "normalized" : false,
         "type" : "VEC2"
      },
      {
         "bufferView" : 32,
         "byteOffset" : 0,
         "componentType" : 5125,
         "count" : 2040,
         "type" : "SCALAR"
      }
   ],
   "asset" : 
   {
      "generator" : "VTK",
      "version" : "2.0"
   },
   "bufferViews" : 
   [
      {
         "buffer" : 0,
         "byteLength" : 637128,
         "byteOffset" : 0
      },
      {
         "buffer" : 1,
         "byteLength" : 424752,
         "byteOffset" : 0
      },
      {
         "buffer" : 2,
         "byteLength" : 306648,
         "byteOffset" : 0
      },
      {
         "buffer" : 3,
         "byteLength" : 213799,
         "byteOffset" : 0
      },
      {
         "buffer" : 4,
         "byteLength" : 171840,
         "byteOffset" : 0
      },
      {
         "buffer" : 5,
         "byteLength" : 114560,
         "byteOffset" : 0
      },
      {
         "buffer" : 6,
         "byteLength" : 85920,
         "byteOffset" : 0
      },
      {
         "buffer" : 7,
         "byteLength" : 176479,
         "byteOffset" : 0
      },
      {
         "buffer" : 8,
         "byteLength" : 1322808,
         "byteOffset" : 0
      },
      {
         "buffer" : 9,
         "byteLength" : 881872,
         "byteOffset" : 0
      },
      {
         "buffer" : 10,
         "byteLength" : 658752,
         "byteOffset" : 0
      },
      {
         "buffer" : 11,
         "byteLength" : 316346,
         "byteOffset" : 0
      },
      {
         "buffer" : 12,
         "byteLength" : 241248,
         "byteOffset" : 0
      },
      {
         "buffer" : 13,
         "byteLength" : 160832,
         "byteOffset" : 0
      },
      {
         "buffer" : 14,
         "byteLength" : 120624,
         "byteOffset" : 0
      },
      {
         "buffer" : 15,
         "byteLength" : 85983,
         "byteOffset" : 0
      },
      {
         "buffer" : 16,
         "byteLength" : 18720,
         "byteOffset" : 0
      },
      {
         "buffer" : 17,
         "byteLength" : 12480,
         "byteOffset" : 0
      },
      {
         "buffer" : 18,
         "byteLength" : 9360,
         "byteOffset" : 0
      },
      {
         "buffer" : 19,
         "byteLength" : 1322808,
         "byteOffset" : 0
      },
      {
         "buffer" : 20,
         "byteLength" : 881872,
         "byteOffset" : 0
      },
      {
         "buffer" : 21,
         "byteLength" : 658752,
         "byteOffset" : 0
      },
      {
         "buffer" : 22,
         "byteLength" : 312586,
         "byteOffset" : 0
      },
      {
         "buffer" : 23,
         "byteLength" : 18720,
         "byteOffset" : 0
      },
      {
         "buffer" : 24,
         "byteLength" : 12480,
         "byteOffset" : 0
      },
      {
         "buffer" : 25,
         "byteLength" : 9360,
         "byteOffset" : 0
      },
      {
         "buffer" : 26,
         "byteLength" : 171840,
         "byteOffset" : 0
      },
      {
         "buffer" : 27,
         "byteLength" : 114560,
         "byteOffset" : 0
      },
      {
         "buffer" : 28,
         "byteLength" : 85920,
         "byteOffset" : 0
      },
      {
         "buffer" : 29,
         "byteLength" : 188132,
         "byteOffset" : 0
      },
      {
         "buffer" : 30,
         "byteLength" : 16320,
         "byteOffset" : 0
      },
      {
         "buffer" : 31,
         "byteLength" : 10880,
         "byteOffset" : 0
      },
      {
         "buffer" : 32,
         "byteLength" : 8160,
         "byteOffset" : 0
      }
   ],
   "buffers" : 
   [
      {
         "byteLength" : 637128,
         "uri" : "buffer2089.bin"
      },
      {
         "byteLength" : 424752,
         "uri" : "buffer2092.bin"
      },
      {
         "byteLength" : 306648,
         "uri" : "buffer66122.bin"
      },
      {
         "byteLength" : 213799,
         "uri" : "buffer66607.bin"
      },
      {
         "byteLength" : 171840,
         "uri" : "buffer2118.bin"
      },
      {
         "byteLength" : 114560,
         "uri" : "buffer2121.bin"
      },
      {
         "byteLength" : 85920,
         "uri" : "buffer84905.bin"
      },
      {
         "byteLength" : 176479,
         "uri" : "buffer85390.bin"
      },
      {
         "byteLength" : 1322808,
         "uri" : "buffer2147.bin"
      },
      {
         "byteLength" : 881872,
         "uri" : "buffer2150.bin"
      },
      {
         "byteLength" : 658752,
         "uri" : "buffer221938.bin"
      },
      {
         "byteLength" : 316346,
         "uri" : "buffer222423.bin"
      },
      {
         "byteLength" : 241248,
         "uri" : "buffer2176.bin"
      },
      {
         "byteLength" : 160832,
         "uri" : "buffer2179.bin"
      },
      {
         "byteLength" : 120624,
         "uri" : "buffer247951.bin"
      },
      {
         "byteLength" : 85983,
         "uri" : "buffer248436.bin"
      },
      {
         "byteLength" : 18720,
         "uri" : "buffer2205.bin"
      },
      {
         "byteLength" : 12480,
         "uri" : "buffer2208.bin"
      },
      {
         "byteLength" : 9360,
         "uri" : "buffer250784.bin"
      },
      {
         "byteLength" : 1322808,
         "uri" : "buffer2234.bin"
      },
      {
         "byteLength" : 881872,
         "uri" : "buffer2237.bin"
      },
      {
         "byteLength" : 658752,
         "uri" : "buffer387321.bin"
      },
      {
         "byteLength" : 312586,
         "uri" : "buffer387806.bin"
      },
      {
         "byteLength" : 18720,
         "uri" : "buffer2263.bin"
      },
      {
         "byteLength" : 12480,
         "uri" : "buffer2266.bin"
      },
      {
         "byteLength" : 9360,
         "uri" : "buffer390154.bin"
      },
      {
         "byteLength" : 171840,
         "uri" : "buffer2292.bin"
      },
      {
         "byteLength" : 114560,
         "uri" : "buffer2295.bin"
      },
      {
         "byteLength" : 85920,
         "uri" : "buffer408441.bin"
      },
      {
         "byteLength" : 188132,
         "uri" : "buffer408926.bin"
      },
      {
         "byteLength" : 16320,
         "uri" : "buffer2321.bin"
      },
      {
         "byteLength" : 10880,
         "uri" : "buffer2324.bin"
      },
      {
         "byteLength" : 8160,
         "uri" : "buffer411024.bin"
      }
   ],
   "cameras" : 
   [
      {
         "perspective" : 
         {
            "aspectRatio" : 1.3333333333333333,
            "yfov" : 0.52359877559829882,
            "zfar" : 9441.6267786487515,
            "znear" : 7417.6115298607647
         },
         "type" : "perspective"
      }
   ],
   "images" : 
   [
      {
         "bufferView" : 3,
         "mimeType" : "image/png"
      },
      {
         "bufferView" : 7,
         "mimeType" : "image/png"
      },
      {
         "bufferView" : 11,
         "mimeType" : "image/png"
      },
      {
         "bufferView" : 15,
         "mimeType" : "image/png"
      },
      {
         "bufferView" : 22,
         "mimeType" : "image/png"
      },
      {
         "bufferView" : 29,
         "mimeType" : "image/png"
      }
   ],
   "materials" : 
   [
      {
         "pbrMetallicRoughness" : 
         {
            "baseColorFactor" : [ 1.0, 1.0, 1.0, 1.0 ],
            "baseColorTexture" : 
            {
               "index" : 0,
               "texCoord" : 0
            },
            "metallicFactor" : 1.0,
            "roughnessFactor" : 0.28169014084507038
         }
      },
      {
         "pbrMetallicRoughness" : 
         {
            "baseColorFactor" : [ 1.0, 1.0, 1.0, 1.0 ],
            "baseColorTexture" : 
            {
               "index" : 1,
               "texCoord" : 0
            },
            "metallicFactor" : 1.0,
            "roughnessFactor" : 0.40000000000000002
         }
      },
      {
         "pbrMetallicRoughness" : 
         {
            "baseColorFactor" : [ 1.0, 1.0, 1.0, 1.0 ],
            "baseColorTexture" : 
            {
               "index" : 2,
               "texCoord" : 0
            },
            "metallicFactor" : 1.0,
            "roughnessFactor" : 0.40000000000000002
         }
      },
      {
         "pbrMetallicRoughness" : 
         {
            "baseColorFactor" : [ 1.0, 1.0, 1.0, 1.0 ],
            "baseColorTexture" : 
            {
               "index" : 3,
               "texCoord" : 0
            },
            "metallicFactor" : 1.0,
            "roughnessFactor" : 0.40000000000000002
         }
      },
      {
         "pbrMetallicRoughness" : 
         {
            "baseColorFactor" : [ 1.0, 1.0, 1.0, 1.0 ],
            "baseColorTexture" : 
            {
               "index" : 4,
               "texCoord" : 0
            },
            "metallicFactor" : 1.0,
            "roughnessFactor" : 0.40000000000000002
         }
      },
      {
         "pbrMetallicRoughness" : 
         {
            "baseColorFactor" : [ 1.0, 1.0, 1.0, 1.0 ],
            "baseColorTexture" : 
            {
               "index" : 5,
               "texCoord" : 0
            },
            "metallicFactor" : 1.0,
            "roughnessFactor" : 0.40000000000000002
         }
      },
      {
         "pbrMetallicRoughness" : 
         {
            "baseColorFactor" : [ 1.0, 1.0, 1.0, 1.0 ],
            "baseColorTexture" : 
            {
               "index" : 6,
               "texCoord" : 0
            },
            "metallicFactor" : 1.0,
            "roughnessFactor" : 0.40000000000000002
         }
      },
      {
         "pbrMetallicRoughness" : 
         {
            "baseColorFactor" : [ 0.7843, 0.7843, 0.7843, 1.0 ],
            "baseColorTexture" : 
            {
               "index" : 7,
               "texCoord" : 0
            },
            "metallicFactor" : 1.0,
            "roughnessFactor" : 0.40000000000000002
         }
      },
      {
         "pbrMetallicRoughness" : 
         {
            "baseColorFactor" : [ 1.0, 1.0, 1.0, 1.0 ],
            "baseColorTexture" : 
            {
               "index" : 8,
               "texCoord" : 0
            },
            "metallicFactor" : 1.0,
            "roughnessFactor" : 0.40000000000000002
         }
      }
   ],
   "meshes" : 
   [
      {
         "name" : "mesh0",
         "primitives" : 
         [
            {
               "attributes" : 
               {
                  "POSITION" : 0,
                  "TEXCOORD_0" : 1
               },
               "indices" : 2,
               "material" : 0,
               "mode" : 4
            }
         ]
      },
      {
         "name" : "mesh1",
         "primitives" : 
         [
            {
               "attributes" : 
               {
                  "POSITION" : 3,
                  "TEXCOORD_0" : 4
               },
               "indices" : 5,
               "material" : 1,
               "mode" : 4
            }
         ]
      },
      {
         "name" : "mesh2",
         "primitives" : 
         [
            {
               "attributes" : 
               {
                  "POSITION" : 6,
                  "TEXCOORD_0" : 7
               },
               "indices" : 8,
               "material" : 2,
               "mode" : 4
            }
         ]
      },
      {
         "name" : "mesh3",
         "primitives" : 
         [
            {
               "attributes" : 
               {
                  "POSITION" : 9,
                  "TEXCOORD_0" : 10
               },
               "indices" : 11,
               "material" : 3,
               "mode" : 4
            }
         ]
      },
      {
         "name" : "mesh4",
         "primitives" : 
         [
            {
               "attributes" : 
               {
                  "POSITION" : 12,
                  "TEXCOORD_0" : 13
               },
               "indices" : 14,
               "material" : 4,
               "mode" : 4
            }
         ]
      },
      {
         "name" : "mesh5",
         "primitives" : 
         [
            {
               "attributes" : 
               {
                  "POSITION" : 15,
                  "TEXCOORD_0" : 16
               },
               "indices" : 17,
               "material" : 5,
               "mode" : 4
            }
         ]
      },
      {
         "name" : "mesh6",
         "primitives" : 
         [
            {
               "attributes" : 
               {
                  "POSITION" : 18,
                  "TEXCOORD_0" : 19
               },
               "indices" : 20,
               "material" : 6,
               "mode" : 4
            }
         ]
      },
      {
         "name" : "mesh7",
         "primitives" : 
         [
            {
               "attributes" : 
               {
                  "POSITION" : 21,
                  "TEXCOORD_0" : 22
               },
               "indices" : 23,
               "material" : 7,
               "mode" : 4
            }
         ]
      },
      {
         "name" : "mesh8",
         "primitives" : 
         [
            {
               "attributes" : 
               {
                  "POSITION" : 24,
                  "TEXCOORD_0" : 25
               },
               "indices" : 26,
               "material" : 8,
               "mode" : 4
            }
         ]
      }
   ],
   "nodes" : 
   [
      {
         "mesh" : 0,
         "name" : "mesh0"
      },
      {
         "mesh" : 1,
         "name" : "mesh1"
      },
      {
         "mesh" : 2,
         "name" : "mesh2"
      },
      {
         "mesh" : 3,
         "name" : "mesh3"
      },
      {
         "mesh" : 4,
         "name" : "mesh4"
      },
      {
         "mesh" : 5,
         "name" : "mesh5"
      },
      {
         "mesh" : 6,
         "name" : "mesh6"
      },
      {
         "mesh" : 7,
         "name" : "mesh7"
      },
      {
         "mesh" : 8,
         "name" : "mesh8"
      },
      {
         "camera" : 0,
         "matrix" : 
         [
            1.0,
            0.0,
            0.0,
            0.0,
            0.0,
            1.0,
            0.0,
            0.0,
            0.0,
            0.0,
            1.0,
            0.0,
            342.6739501953125,
            0.0,
            -8540.3118314023268,
            1.0
         ],
         "name" : "Camera Node"
      },
      {
         "children" : [ 0, 1, 2, 3, 4, 5, 6, 7, 8, 9 ],
         "name" : "Renderer Node"
      }
   ],
   "samplers" : 
   [
      {
         "magFilter" : 9728,
         "minFilter" : 9728,
         "wrapS" : 10497,
         "wrapT" : 10497
      },
      {
         "magFilter" : 9728,
         "minFilter" : 9728,
         "wrapS" : 10497,
         "wrapT" : 10497
      },
      {
         "magFilter" : 9728,
         "minFilter" : 9728,
         "wrapS" : 10497,
         "wrapT" : 10497
      },
      {
         "magFilter" : 9728,
         "minFilter" : 9728,
         "wrapS" : 10497,
         "wrapT" : 10497
      },
      {
         "magFilter" : 9728,
         "minFilter" : 9728,
         "wrapS" : 10497,
         "wrapT" : 10497
      },
      {
         "magFilter" : 9728,
         "minFilter" : 9728,
         "wrapS" : 10497,
         "wrapT" : 10497
      },
      {
         "magFilter" : 9728,
         "minFilter" : 9728,
         "wrapS" : 10497,
         "wrapT" : 10497
      },
      {
         "magFilter" : 9728,
         "minFilter" : 9728,
         "wrapS" : 10497,
         "wrapT" : 10497
      },
      {
         "magFilter" : 9728,
         "minFilter" : 9728,
         "wrapS" : 10497,
         "wrapT" : 10497
      }
   ],
   "scene" : 0,
   "scenes" : 
   [
      {
         "name" : "Layer 0",
         "nodes" : [ 10 ]
      }
   ],
   "textures" : 
   [
      {
         "sampler" : 0,
         "source" : 0
      },
      {
         "sampler" : 1,
         "source" : 1
      },
      {
         "sampler" : 2,
         "source" : 2
      },
      {
         "sampler" : 3,
         "source" : 3
      },
      {
         "sampler" : 4,
         "source" : 2
      },
      {
         "sampler" : 5,
         "source" : 4
      },
      {
         "sampler" : 6,
         "source" : 5
      },
      {
         "sampler" : 7,
         "source" : 5
      },
      {
         "sampler" : 8,
         "source" : 3
      }
   ]
}